<svg width="61" height="61" viewBox="0 0 61 61" fill="none" xmlns="http://www.w3.org/2000/svg">
<path d="M7.28433 58.0815C11.0033 60.0725 16.1091 61 23.3516 61C29.2444 61 33.6796 60.3894 37.1253 59.091C38.1096 60.2572 39.5807 61 41.2227 61H55.6387C58.5948 61 61 58.5948 61 55.6387C61 54.2667 60.4811 53.0139 59.6303 52.0644C60.4815 51.115 61 49.8622 61 48.4902C61 47.1183 60.4811 45.8654 59.6303 44.916C60.4815 43.9666 61 42.7138 61 41.3418C61 39.9698 60.4811 38.717 59.6303 37.7676C60.4815 36.8182 61 35.5653 61 34.1934C61 31.2372 58.5948 28.832 55.6387 28.832H41.2227C41.0486 28.832 40.8764 28.8409 40.7065 28.8576C38.9129 26.6852 36.8112 24.8636 34.4954 23.4665C35.3438 22.518 35.8613 21.2666 35.8613 19.8965C35.8613 17.7608 34.6057 15.9132 32.7939 15.0517L35.7734 5.91561C35.9507 5.3711 35.8567 4.77493 35.5207 4.31187C35.1842 3.84834 34.6467 3.57422 34.0742 3.57422H28.4057C27.6676 1.49391 25.6813 0 23.3516 0C21.0213 0 19.0341 1.49391 18.2965 3.57422H12.6289C12.0565 3.57422 11.5189 3.84834 11.1825 4.31187C10.8464 4.77493 10.7524 5.3711 10.9298 5.91561L13.9092 15.0517C12.0974 15.9132 10.8418 17.7608 10.8418 19.8965C10.8418 21.2675 11.3598 22.5199 12.2096 23.4688C5.03928 27.7965 0 36.0158 0 44.916C0 51.0643 2.45076 55.4935 7.28433 58.0815ZM57.4258 41.3418C57.4258 42.327 56.6239 43.1289 55.6387 43.1289H41.2227C40.2374 43.1289 39.4355 42.327 39.4355 41.3418C39.4355 40.3566 40.2374 39.5547 41.2227 39.5547H55.6387C56.6239 39.5547 57.4258 40.3566 57.4258 41.3418ZM57.4258 48.4902C57.4258 49.4755 56.6239 50.2773 55.6387 50.2773H41.2227C40.2374 50.2773 39.4355 49.4755 39.4355 48.4902C39.4355 47.505 40.2374 46.7031 41.2227 46.7031H55.6387C56.6239 46.7031 57.4258 47.505 57.4258 48.4902ZM55.6387 57.4258H41.2227C40.2374 57.4258 39.4355 56.6239 39.4355 55.6387C39.4355 54.6534 40.2374 53.8516 41.2227 53.8516H55.6387C56.6239 53.8516 57.4258 54.6534 57.4258 55.6387C57.4258 56.6239 56.6239 57.4258 55.6387 57.4258ZM57.4258 34.1934C57.4258 35.1786 56.6239 35.9805 55.6387 35.9805H41.2227C40.2374 35.9805 39.4355 35.1786 39.4355 34.1934C39.4355 33.2081 40.2374 32.4062 41.2227 32.4062H55.6387C56.6239 32.4062 57.4258 33.2081 57.4258 34.1934ZM30.4488 21.6836H16.2548C16.239 21.6831 16.2231 21.6836 16.2073 21.6836H16.2031C15.2179 21.6836 14.416 20.8817 14.416 19.8965C14.416 18.9131 15.2146 18.1126 16.1975 18.1098H16.2027C16.2068 18.1098 16.211 18.1094 16.2152 18.1094H30.4874C30.4916 18.1094 30.4963 18.1098 30.5005 18.1098H30.5056C31.4885 18.1126 32.2871 18.9131 32.2871 19.8965C32.2871 20.8817 31.4852 21.6836 30.5 21.6836H30.4944C30.4795 21.6836 30.4642 21.6831 30.4488 21.6836ZM19.7773 7.14844C20.7644 7.14844 21.5645 6.34843 21.5645 5.36133C21.5645 4.37609 22.3663 3.57422 23.3516 3.57422C24.3368 3.57422 25.1387 4.37609 25.1387 5.36133V8.93555C25.1387 9.92264 25.9387 10.7227 26.9258 10.7227C27.9129 10.7227 28.7129 9.92264 28.7129 8.93555V7.14844H31.6118L29.2029 14.5352H17.5002L15.0913 7.14844H19.7773ZM16.5517 25.2578H30.1444C32.8507 26.3883 35.3173 28.1684 37.3743 30.466C36.4389 31.4317 35.8613 32.746 35.8613 34.1934C35.8613 35.5653 36.3802 36.8182 37.231 37.7676C36.3802 38.717 35.8613 39.9698 35.8613 41.3418C35.8613 42.7138 36.3802 43.9666 37.231 44.916C36.3802 45.8654 35.8613 47.1183 35.8613 48.4902C35.8613 49.8622 36.3802 51.115 37.231 52.0644C36.3802 53.0139 35.8613 54.2667 35.8613 55.6387C35.8613 55.6754 35.8632 55.7117 35.8641 55.748C32.8409 56.8896 28.8143 57.4258 23.3516 57.4258C16.7206 57.4258 12.1509 56.6327 8.97138 54.9303C5.28919 52.9589 3.57422 49.777 3.57422 44.916C3.57422 36.4868 8.89459 28.4541 16.5517 25.2578Z" fill="#9CACC6"/>
<path d="M27.4049 41.5263V42.7274H29V43.5477H27.4049V47.2537H26.2049L23.2195 43.5477H20.0439V47.2537H18.5951V43.5477H17V42.7274H18.5951V41.5263H17V40.706H18.5951V37H19.7951L22.7659 40.706H25.9415V37H27.4049V40.706H29V41.5263H27.4049ZM20.0439 40.706H20.9366L20.0439 39.5927V40.706ZM22.561 42.7274L21.5951 41.5263H20.0439V42.7274H22.561ZM25.9415 41.5263H23.4244L24.3902 42.7274H25.9415V41.5263ZM25.9415 43.5477H25.0488L25.9415 44.661V43.5477Z" fill="#9CACC6"/>
</svg>
