<svg width="111" height="111" viewBox="0 0 111 111" fill="none" xmlns="http://www.w3.org/2000/svg">
<path d="M42.4575 85.9371C40.6647 85.9371 39.2056 84.478 39.2056 82.6851C39.2056 80.8889 37.7498 79.4332 35.9536 79.4332C34.1574 79.4332 32.7017 80.8889 32.7017 82.6851C32.7017 86.9372 35.437 90.5601 39.2403 91.8931V94.7402C39.2403 96.5364 40.696 97.9922 42.4922 97.9922C44.2884 97.9922 45.7442 96.5364 45.7442 94.7402V91.8694C49.511 90.5178 52.2134 86.9118 52.2134 82.6851C52.2134 77.3059 47.8368 72.9293 42.4575 72.9293C40.6647 72.9293 39.2056 71.4701 39.2056 69.6773C39.2056 67.8837 40.6647 66.4254 42.4575 66.4254C44.2503 66.4254 45.7095 67.8837 45.7095 69.6773C45.7095 71.4735 47.1652 72.9293 48.9614 72.9293C50.7576 72.9293 52.2134 71.4735 52.2134 69.6773C52.2134 65.4506 49.511 61.8447 45.7442 60.4923V55.7168C45.7442 53.9206 44.2884 52.4648 42.4922 52.4648C40.696 52.4648 39.2403 53.9206 39.2403 55.7168V60.4685C35.437 61.8015 32.7017 65.4244 32.7017 69.6773C32.7017 75.0566 37.0782 79.4332 42.4575 79.4332C44.2503 79.4332 45.7095 80.8915 45.7095 82.6851C45.7095 84.478 44.2503 85.9371 42.4575 85.9371Z" fill="#465166"/>
<path d="M13.2551 105.689C20.0224 109.312 29.3133 111 42.4922 111C53.2152 111 61.2858 109.889 67.5559 107.526C69.3471 109.648 72.024 111 75.0117 111H101.244C106.623 111 111 106.623 111 101.244C111 98.7476 110.056 96.4678 108.508 94.7402C110.057 93.0126 111 90.7329 111 88.2363C111 85.7398 110.056 83.46 108.508 81.7324C110.057 80.0048 111 77.7251 111 75.2285C111 72.732 110.056 70.4522 108.508 68.7246C110.057 66.997 111 64.7173 111 62.2207C111 56.8414 106.623 52.4648 101.244 52.4648H75.0117C74.695 52.4648 74.3817 52.4809 74.0725 52.5114C70.8087 48.5583 66.9843 45.2436 62.7703 42.7014C64.3141 40.9755 65.2559 38.6982 65.2559 36.2051C65.2559 32.3188 62.971 28.9568 59.6742 27.3892L65.0958 10.7645C65.4185 9.77364 65.2474 8.68881 64.636 7.84618C64.0237 7.00271 63.0455 6.50391 62.0039 6.50391H51.6891C50.346 2.71843 46.7316 0 42.4922 0C38.2519 0 34.6358 2.71843 33.2936 6.50391H22.9805C21.9388 6.50391 20.9607 7.00271 20.3484 7.84618C19.737 8.68881 19.5659 9.77364 19.8886 10.7645L25.3102 27.3892C22.0134 28.9568 19.7285 32.3188 19.7285 36.2051C19.7285 38.6999 20.6711 40.9788 22.2174 42.7056C9.16983 50.5806 0 65.537 0 81.7324C0 92.9203 4.45958 100.98 13.2551 105.689ZM104.496 75.2285C104.496 77.0213 103.037 78.4805 101.244 78.4805H75.0117C73.2189 78.4805 71.7598 77.0213 71.7598 75.2285C71.7598 73.4357 73.2189 71.9766 75.0117 71.9766H101.244C103.037 71.9766 104.496 73.4357 104.496 75.2285ZM104.496 88.2363C104.496 90.0291 103.037 91.4883 101.244 91.4883H75.0117C73.2189 91.4883 71.7598 90.0291 71.7598 88.2363C71.7598 86.4435 73.2189 84.9844 75.0117 84.9844H101.244C103.037 84.9844 104.496 86.4435 104.496 88.2363ZM101.244 104.496H75.0117C73.2189 104.496 71.7598 103.037 71.7598 101.244C71.7598 99.4513 73.2189 97.9922 75.0117 97.9922H101.244C103.037 97.9922 104.496 99.4513 104.496 101.244C104.496 103.037 103.037 104.496 101.244 104.496ZM104.496 62.2207C104.496 64.0135 103.037 65.4727 101.244 65.4727H75.0117C73.2189 65.4727 71.7598 64.0135 71.7598 62.2207C71.7598 60.4279 73.2189 58.9688 75.0117 58.9688H101.244C103.037 58.9688 104.496 60.4279 104.496 62.2207ZM55.4068 39.457H29.5784C29.5496 39.4562 29.5208 39.457 29.492 39.457H29.4844C27.6916 39.457 26.2324 37.9979 26.2324 36.2051C26.2324 34.4157 27.6856 32.9591 29.4742 32.954H29.4835C29.4911 32.954 29.4988 32.9531 29.5064 32.9531H55.4771C55.4848 32.9531 55.4932 32.954 55.5008 32.954H55.5102C57.2987 32.9591 58.752 34.4157 58.752 36.2051C58.752 37.9979 57.2928 39.457 55.5 39.457H55.4898C55.4627 39.457 55.4348 39.4562 55.4068 39.457ZM35.9883 13.0078C37.7845 13.0078 39.2402 11.5521 39.2402 9.75586C39.2402 7.96305 40.6994 6.50391 42.4922 6.50391C44.285 6.50391 45.7441 7.96305 45.7441 9.75586V16.2598C45.7441 18.056 47.1999 19.5117 48.9961 19.5117C50.7923 19.5117 52.248 18.056 52.248 16.2598V13.0078H57.5232L53.1398 26.4492H31.8446L27.4612 13.0078H35.9883ZM30.1187 45.9609H54.853C59.7775 48.018 64.2659 51.2572 68.009 55.4382C66.3068 57.1954 65.2559 59.587 65.2559 62.2207C65.2559 64.7173 66.2001 66.997 67.7482 68.7246C66.2001 70.4522 65.2559 72.732 65.2559 75.2285C65.2559 77.7251 66.2001 80.0048 67.7482 81.7324C66.2001 83.46 65.2559 85.7398 65.2559 88.2363C65.2559 90.7329 66.2001 93.0126 67.7482 94.7402C66.2001 96.4678 65.2559 98.7476 65.2559 101.244C65.2559 101.311 65.2592 101.377 65.2609 101.443C59.7597 103.521 52.4327 104.496 42.4922 104.496C30.4261 104.496 22.1107 103.053 16.325 99.9552C9.6246 96.3679 6.50391 90.5779 6.50391 81.7324C6.50391 66.394 16.1852 51.7772 30.1187 45.9609Z" fill="#465166"/>
</svg>
