<svg width="112" height="111" viewBox="0 0 112 111" fill="none" xmlns="http://www.w3.org/2000/svg">
<path d="M108.058 38.0918L72.9084 2.94228C71.0109 1.04501 68.4805 0 65.783 0C63.0857 0 60.5552 1.04457 58.6577 2.94185L2.94228 58.6575C1.04501 60.555 0 63.0851 0 65.7826C0 68.4801 1.04501 71.0107 2.94228 72.9077L7.27668 77.2421C7.27711 77.2423 7.27733 77.2428 7.27776 77.2432C7.2782 77.2436 7.27863 77.2441 7.27907 77.2445L36.4092 106.375H32.3757C31.0987 106.375 30.0633 107.41 30.0633 108.687C30.0633 109.964 31.0987 111 32.3757 111H45.2083C45.2113 111 45.2141 111 45.2172 111C45.2202 111 45.223 111 45.2261 111L78.6258 111C79.9028 111 80.9382 109.965 80.9382 108.688C80.9382 107.41 79.9028 106.375 78.6258 106.375L54.026 106.375L108.059 52.3421C111.987 48.4131 111.987 42.0204 108.058 38.0918ZM104.788 49.0718L49.0722 104.788C48.0504 105.809 46.6845 106.372 45.2256 106.375H45.2081C43.7496 106.372 42.3842 105.809 41.3628 104.788L12.1834 75.6081L65.6902 22.1008C66.5932 21.1978 66.5932 19.7335 65.6902 18.8305C64.787 17.9275 63.3231 17.9275 62.4197 18.8307L8.91292 72.338L6.21238 69.6374C5.18883 68.6139 4.62514 67.245 4.62514 65.7828C4.62514 64.3207 5.18883 62.9515 6.21259 61.9278L61.928 6.21238C62.9517 5.18883 64.3209 4.62514 65.783 4.62514C67.2452 4.62514 68.6143 5.18883 69.6381 6.21259L82.1485 18.7228L28.641 72.2306C27.738 73.1334 27.738 74.5977 28.641 75.5012C29.0926 75.9526 29.6845 76.1783 30.2762 76.1783C30.8678 76.1783 31.4597 75.9523 31.9113 75.501L85.4188 21.9933L104.788 41.3619C106.913 43.4875 106.913 46.9462 104.788 49.0718Z" fill="#2B6BE8"/>
</svg>
