<svg width="112" height="111" viewBox="0 0 112 111" fill="none" xmlns="http://www.w3.org/2000/svg">
<path d="M108.058 38.0918L72.9084 2.94228C71.0109 1.04501 68.4805 0 65.783 0C63.0857 0 60.5552 1.04457 58.6577 2.94185L2.94228 58.6575C1.04501 60.555 0 63.0851 0 65.7826C0 68.4801 1.04501 71.0107 2.94228 72.9077L7.27668 77.2421C7.27711 77.2423 7.27733 77.2428 7.27776 77.2432C7.2782 77.2436 7.27863 77.2441 7.27907 77.2445L36.4092 106.375H32.3757C31.0987 106.375 30.0633 107.41 30.0633 108.687C30.0633 109.964 31.0987 111 32.3757 111H45.2083C45.2113 111 45.2141 111 45.2172 111C45.2202 111 45.223 111 45.2261 111L78.6258 111C79.9028 111 80.9382 109.965 80.9382 108.688C80.9382 107.41 79.9028 106.375 78.6258 106.375L54.026 106.375L108.059 52.3421C111.987 48.4131 111.987 42.0204 108.058 38.0918ZM104.788 49.0718L49.0722 104.788C48.0504 105.809 46.6845 106.372 45.2256 106.375H45.2081C43.7496 106.372 42.3842 105.809 41.3628 104.788L12.1834 75.6081L65.6902 22.1008C66.5932 21.1978 66.5932 19.7335 65.6902 18.8305C64.787 17.9275 63.3231 17.9275 62.4197 18.8307L8.91292 72.338L6.21238 69.6374C5.18883 68.6139 4.62514 67.245 4.62514 65.7828C4.62514 64.3207 5.18883 62.9515 6.21259 61.9278L61.928 6.21238C62.9517 5.18883 64.3209 4.62514 65.783 4.62514C67.2452 4.62514 68.6143 5.18883 69.6381 6.21259L82.1485 18.7228L28.641 72.2306C27.738 73.1334 27.738 74.5977 28.641 75.5012C29.0926 75.9526 29.6845 76.1783 30.2762 76.1783C30.8678 76.1783 31.4597 75.9523 31.9113 75.501L85.4188 21.9933L104.788 41.3619C106.913 43.4875 106.913 46.9462 104.788 49.0718Z" fill="#465166"/>
<path d="M56.977 66.7879C56.074 65.8849 54.6101 65.8851 53.7065 66.7879L35.509 84.9851C34.606 85.8881 34.606 87.3522 35.509 88.2556C35.9606 88.7073 36.5525 88.9329 37.1442 88.9329C37.7359 88.9329 38.3277 88.707 38.7793 88.2556L56.9768 70.0584C57.88 69.155 57.88 67.6909 56.977 66.7879Z" fill="#465166"/>
<path d="M49.5131 84.0624L42.0496 91.526C41.1466 92.429 41.1466 93.8933 42.0496 94.7965C42.5012 95.2479 43.0931 95.4738 43.6847 95.4738C44.2768 95.4738 44.8683 95.2479 45.3199 94.7965L52.7834 87.3329C53.6864 86.4299 53.6864 84.9656 52.7834 84.0624C51.8804 83.1592 50.4168 83.1592 49.5131 84.0624Z" fill="#465166"/>
<path d="M56.3814 77.1948L55.4003 78.1757C54.4971 79.0787 54.4971 80.5428 55.4001 81.4462C55.8515 81.8978 56.4436 82.1237 57.0353 82.1237C57.6269 82.1237 58.2188 81.8978 58.6702 81.4462L59.6513 80.4654C60.5545 79.5624 60.5545 78.0983 59.6515 77.1951C58.7489 76.2921 57.2844 76.2918 56.3814 77.1948Z" fill="#465166"/>
<path d="M88.256 35.509C87.8224 35.0754 87.2342 34.8317 86.6209 34.8317C86.0075 34.8317 85.4195 35.0754 84.9857 35.509L75.1741 45.3203C74.7405 45.7542 74.4968 46.3421 74.4968 46.9555C74.4968 47.5688 74.7405 48.157 75.1741 48.5906L81.7152 55.1311C82.1668 55.5827 82.7587 55.8084 83.3503 55.8084C83.9424 55.8084 84.5339 55.5824 84.9855 55.1311L94.7966 45.3201C95.6996 44.4171 95.6996 42.9528 94.7966 42.0498L88.256 35.509ZM83.3501 50.2258L80.0796 46.9555L86.6207 40.4147L89.891 43.6852L83.3501 50.2258Z" fill="#465166"/>
<path d="M69.4517 17.3825C70.0438 17.3825 70.6357 17.1565 71.087 16.7047L72.0681 15.7232C72.9709 14.82 72.9707 13.3557 72.0674 12.4529C71.1644 11.5501 69.6999 11.5504 68.7971 12.4536L67.8161 13.4351C66.9133 14.3383 66.9135 15.8026 67.8167 16.7054C68.2683 17.157 68.8598 17.3825 69.4517 17.3825Z" fill="#465166"/>
<path d="M23.245 77.6268L22.2639 78.6078C21.3609 79.5106 21.3609 80.9749 22.2639 81.8783C22.7155 82.3297 23.3074 82.5554 23.8991 82.5554C24.4907 82.5554 25.0826 82.3297 25.5342 81.8783L26.5153 80.8973C27.4183 79.9941 27.4183 78.5298 26.5153 77.6268C25.6121 76.7235 24.1482 76.7235 23.245 77.6268Z" fill="#465166"/>
</svg>
