<svg width="64" height="64" viewBox="0 0 64 64" fill="none" xmlns="http://www.w3.org/2000/svg">
<path d="M62.3011 21.9619L42.0354 1.69638C40.9414 0.6025 39.4825 0 37.9273 0C36.3721 0 34.9131 0.60225 33.8191 1.69613L1.69638 33.819C0.6025 34.913 0 36.3718 0 37.927C0 39.4823 0.6025 40.9413 1.69638 42.035L4.19538 44.534C4.19563 44.5341 4.19575 44.5344 4.196 44.5346C4.19625 44.5349 4.1965 44.5351 4.19675 44.5354L20.9918 61.3304H18.6663C17.93 61.3304 17.333 61.9273 17.333 62.6636C17.333 63.3999 17.93 63.9969 18.6663 63.9969H26.0649C26.0666 63.9969 26.0683 63.997 26.07 63.997C26.0718 63.997 26.0734 63.9969 26.0751 63.9969L45.3318 63.9971C46.068 63.9971 46.665 63.4001 46.665 62.6639C46.665 61.9275 46.068 61.3306 45.3318 61.3306L31.1488 61.3304L62.3013 30.1779C64.5663 27.9126 64.5663 24.2269 62.3011 21.9619ZM60.4156 28.2924L28.2926 60.4154C27.7035 61.0044 26.916 61.3291 26.0749 61.3304H26.0648C25.2239 61.329 24.4366 61.0044 23.8478 60.4154L7.02438 43.5919L37.8738 12.7423C38.3944 12.2216 38.3944 11.3774 37.8738 10.8568C37.353 10.3361 36.509 10.3361 35.9881 10.8569L5.13875 41.7065L3.58175 40.1495C2.99163 39.5594 2.66663 38.7701 2.66663 37.9271C2.66663 37.0841 2.99163 36.2948 3.58188 35.7045L35.7046 3.58175C36.2949 2.99163 37.0843 2.66663 37.9273 2.66663C38.7703 2.66663 39.5596 2.99163 40.1499 3.58188L47.3628 10.7946L16.513 41.6446C15.9924 42.1651 15.9924 43.0094 16.513 43.5303C16.7734 43.7905 17.1146 43.9206 17.4558 43.9206C17.7969 43.9206 18.1381 43.7904 18.3985 43.5301L49.2483 12.6803L60.4156 23.8473C61.641 25.0728 61.6409 27.0669 60.4156 28.2924Z" fill="#9CACC6"/>
<path d="M32.8501 38.5066C32.3295 37.986 31.4855 37.9861 30.9645 38.5066L20.4727 48.9983C19.9521 49.5189 19.9521 50.363 20.4727 50.8839C20.7331 51.1443 21.0744 51.2744 21.4155 51.2744C21.7566 51.2744 22.0979 51.1441 22.3582 50.8839L32.85 40.3923C33.3707 39.8714 33.3707 39.0273 32.8501 38.5066Z" fill="#9CACC6"/>
<path d="M28.5469 48.4662L24.2437 52.7694C23.7231 53.29 23.7231 54.1342 24.2437 54.655C24.5041 54.9152 24.8454 55.0455 25.1865 55.0455C25.5279 55.0455 25.8689 54.9152 26.1292 54.655L30.4324 50.3519C30.953 49.8312 30.953 48.987 30.4324 48.4662C29.9117 47.9455 29.0679 47.9455 28.5469 48.4662Z" fill="#9CACC6"/>
<path d="M32.5067 44.5066L31.9411 45.0721C31.4204 45.5927 31.4204 46.4369 31.941 46.9577C32.2012 47.2181 32.5426 47.3484 32.8837 47.3484C33.2249 47.3484 33.5661 47.2181 33.8264 46.9577L34.392 46.3922C34.9127 45.8716 34.9127 45.0275 34.3921 44.5067C33.8717 43.9861 33.0274 43.986 32.5067 44.5066Z" fill="#9CACC6"/>
<path d="M50.8841 20.4725C50.6341 20.2225 50.2949 20.082 49.9413 20.082C49.5877 20.082 49.2487 20.2225 48.9986 20.4725L43.3417 26.1293C43.0917 26.3794 42.9512 26.7184 42.9512 27.072C42.9512 27.4257 43.0917 27.7648 43.3417 28.0148L47.1129 31.7857C47.3733 32.046 47.7146 32.1762 48.0557 32.1762C48.3971 32.1762 48.7381 32.0459 48.9984 31.7857L54.6551 26.1292C55.1757 25.6085 55.1757 24.7643 54.6551 24.2437L50.8841 20.4725ZM48.0556 28.9575L46.1699 27.072L49.9412 23.3009L51.8267 25.1865L48.0556 28.9575Z" fill="#9CACC6"/>
<path d="M40.0425 10.022C40.3839 10.022 40.7251 9.89171 40.9854 9.63121L41.551 9.06533C42.0715 8.54458 42.0714 7.70033 41.5506 7.17983C41.03 6.65933 40.1856 6.65946 39.6651 7.18021L39.0995 7.74608C38.579 8.26683 38.5791 9.11108 39.0999 9.63158C39.3603 9.89196 39.7013 10.022 40.0425 10.022Z" fill="#9CACC6"/>
<path d="M13.4019 44.7558L12.8363 45.3214C12.3156 45.8419 12.3156 46.6862 12.8363 47.207C13.0966 47.4673 13.4379 47.5974 13.779 47.5974C14.1201 47.5974 14.4614 47.4673 14.7218 47.207L15.2874 46.6414C15.808 46.1207 15.808 45.2764 15.2874 44.7558C14.7666 44.235 13.9226 44.235 13.4019 44.7558Z" fill="#9CACC6"/>
</svg>
