<svg width="431" height="594" viewBox="0 0 431 594" fill="none" xmlns="http://www.w3.org/2000/svg">
<rect x="42" width="346" height="594"/>
<g filter="url(#filter0_d)">
<rect x="17.0874" y="165" width="396.753" height="82.5151" rx="9" transform="rotate(0.060754 17.0874 165)" fill="#F4F5F7"/>
</g>
<g filter="url(#filter1_d)">
<rect x="34" y="178" width="177" height="56" rx="4" fill="white"/>
<path d="M52.491 211L52.491 201.074L58.665 201.074L58.665 202.656L54.171 202.656L54.171 205.442L58.203 205.442L58.203 206.996L54.171 206.996L54.171 211L52.491 211ZM63.9941 210.244C63.8261 210.552 63.5601 210.79 63.1961 210.958C62.8414 211.117 62.4634 211.196 62.0621 211.196C61.6514 211.196 61.2874 211.126 60.9701 210.986C60.6528 210.846 60.3821 210.655 60.1581 210.412C59.9434 210.16 59.7754 209.871 59.6541 209.544C59.5421 209.217 59.4861 208.863 59.4861 208.48L59.4861 204.182L61.1101 204.182L61.1101 208.186C61.1101 208.401 61.1334 208.601 61.1801 208.788C61.2361 208.975 61.3201 209.138 61.4321 209.278C61.5441 209.418 61.6841 209.53 61.8521 209.614C62.0294 209.698 62.2394 209.74 62.4821 209.74C62.9581 209.74 63.3128 209.6 63.5461 209.32C63.7888 209.031 63.9101 208.662 63.9101 208.214L63.9101 204.182L65.5341 204.182L65.5341 209.754C65.5341 210.034 65.5388 210.281 65.5481 210.496C65.5668 210.701 65.5854 210.869 65.6041 211L64.0501 211C64.0314 210.925 64.0174 210.818 64.0081 210.678C63.9988 210.529 63.9941 210.384 63.9941 210.244ZM69.2602 211L67.6362 211L67.6362 204.182L69.2182 204.182L69.2182 205.092C69.4422 204.7 69.7362 204.42 70.1002 204.252C70.4735 204.075 70.8515 203.986 71.2342 203.986C71.6542 203.986 72.0182 204.056 72.3262 204.196C72.6342 204.336 72.8862 204.532 73.0822 204.784C73.2875 205.027 73.4415 205.311 73.5442 205.638C73.6468 205.965 73.6982 206.315 73.6982 206.688L73.6982 211L72.0742 211L72.0742 206.968C72.0742 206.548 71.9668 206.193 71.7522 205.904C71.5468 205.605 71.1875 205.456 70.6742 205.456C70.2075 205.456 69.8528 205.615 69.6102 205.932C69.3768 206.24 69.2602 206.618 69.2602 207.066L69.2602 211ZM76.7672 207.57C76.7672 208.223 76.9306 208.751 77.2572 209.152C77.5932 209.544 78.0412 209.74 78.6012 209.74C78.8626 209.74 79.1052 209.689 79.3292 209.586C79.5532 209.474 79.7446 209.325 79.9032 209.138C80.0619 208.942 80.1832 208.713 80.2672 208.452C80.3606 208.181 80.4072 207.883 80.4072 207.556C80.4072 206.903 80.2392 206.389 79.9032 206.016C79.5766 205.633 79.1472 205.442 78.6152 205.442C78.0832 205.442 77.6399 205.633 77.2852 206.016C76.9399 206.399 76.7672 206.917 76.7672 207.57ZM81.9752 209.754C81.9752 210.062 81.9846 210.333 82.0032 210.566C82.0219 210.799 82.0359 210.944 82.0452 211L80.4912 211C80.4726 210.925 80.4539 210.795 80.4352 210.608C80.4259 210.421 80.4212 210.258 80.4212 210.118C80.2626 210.407 80.0106 210.655 79.6652 210.86C79.3199 211.065 78.9046 211.168 78.4192 211.168C77.9246 211.168 77.4766 211.079 77.0752 210.902C76.6739 210.715 76.3286 210.463 76.0392 210.146C75.7592 209.819 75.5399 209.437 75.3812 208.998C75.2226 208.559 75.1432 208.083 75.1432 207.57C75.1432 207.085 75.2226 206.627 75.3812 206.198C75.5399 205.759 75.7592 205.377 76.0392 205.05C76.3286 204.723 76.6739 204.467 77.0752 204.28C77.4766 204.093 77.9152 204 78.3912 204C78.6899 204 78.9512 204.033 79.1752 204.098C79.3992 204.154 79.5906 204.233 79.7492 204.336C79.9172 204.429 80.0526 204.532 80.1552 204.644C80.2579 204.756 80.3372 204.868 80.3932 204.98L80.3932 200.864L81.9752 200.864L81.9752 209.754ZM98.8398 201.074L100.576 201.074L97.7898 211L96.0538 211L93.6458 203.496L91.2378 211L89.5158 211L86.7018 201.074L88.4658 201.074L90.4538 208.326L92.7778 201.074L94.5278 201.074L96.8938 208.382L98.8398 201.074ZM100.958 209.152C100.958 208.844 101.01 208.573 101.112 208.34C101.224 208.107 101.369 207.906 101.546 207.738C101.733 207.561 101.952 207.421 102.204 207.318C102.456 207.215 102.727 207.141 103.016 207.094L104.766 206.828C104.962 206.8 105.093 206.744 105.158 206.66C105.233 206.567 105.27 206.459 105.27 206.338C105.27 206.049 105.168 205.806 104.962 205.61C104.757 205.405 104.43 205.302 103.982 205.302C103.553 205.302 103.222 205.423 102.988 205.666C102.755 205.899 102.62 206.189 102.582 206.534L101.098 206.198C101.126 205.909 101.215 205.629 101.364 205.358C101.514 205.087 101.71 204.849 101.952 204.644C102.195 204.439 102.484 204.275 102.82 204.154C103.166 204.033 103.548 203.972 103.968 203.972C104.491 203.972 104.934 204.042 105.298 204.182C105.672 204.322 105.97 204.509 106.194 204.742C106.428 204.975 106.596 205.246 106.698 205.554C106.81 205.862 106.866 206.184 106.866 206.52L106.866 209.908C106.866 210.216 106.876 210.468 106.894 210.664C106.922 210.851 106.941 210.963 106.95 211L105.438 211C105.429 210.981 105.415 210.902 105.396 210.762C105.378 210.613 105.368 210.403 105.368 210.132C105.21 210.393 104.958 210.641 104.612 210.874C104.267 211.098 103.819 211.21 103.268 211.21C102.914 211.21 102.592 211.154 102.302 211.042C102.022 210.93 101.78 210.781 101.574 210.594C101.378 210.398 101.224 210.179 101.112 209.936C101.01 209.684 100.958 209.423 100.958 209.152ZM103.576 209.936C103.8 209.936 104.015 209.908 104.22 209.852C104.426 209.787 104.603 209.689 104.752 209.558C104.911 209.418 105.037 209.236 105.13 209.012C105.224 208.788 105.27 208.508 105.27 208.172L105.27 207.864L103.492 208.13C103.24 208.177 103.026 208.275 102.848 208.424C102.671 208.564 102.582 208.774 102.582 209.054C102.582 209.287 102.666 209.493 102.834 209.67C103.002 209.847 103.25 209.936 103.576 209.936ZM108.83 211L108.83 200.864L110.454 200.864L110.454 211L108.83 211ZM112.548 211L112.548 200.864L114.172 200.864L114.172 211L112.548 211ZM120.747 206.842C120.738 206.646 120.696 206.459 120.621 206.282C120.556 206.095 120.453 205.932 120.313 205.792C120.173 205.652 120 205.54 119.795 205.456C119.59 205.372 119.347 205.33 119.067 205.33C118.815 205.33 118.586 205.377 118.381 205.47C118.185 205.554 118.017 205.671 117.877 205.82C117.737 205.96 117.625 206.123 117.541 206.31C117.457 206.487 117.41 206.665 117.401 206.842L120.747 206.842ZM122.301 209.054C122.208 209.353 122.072 209.633 121.895 209.894C121.718 210.155 121.498 210.384 121.237 210.58C120.976 210.776 120.677 210.93 120.341 211.042C120.005 211.154 119.632 211.21 119.221 211.21C118.754 211.21 118.311 211.131 117.891 210.972C117.471 210.804 117.102 210.566 116.785 210.258C116.468 209.941 116.211 209.558 116.015 209.11C115.828 208.653 115.735 208.135 115.735 207.556C115.735 207.015 115.824 206.525 116.001 206.086C116.188 205.647 116.435 205.274 116.743 204.966C117.051 204.649 117.406 204.406 117.807 204.238C118.208 204.061 118.624 203.972 119.053 203.972C119.576 203.972 120.042 204.056 120.453 204.224C120.873 204.392 121.223 204.63 121.503 204.938C121.792 205.246 122.012 205.619 122.161 206.058C122.31 206.487 122.385 206.973 122.385 207.514C122.385 207.645 122.38 207.761 122.371 207.864C122.362 207.957 122.352 208.013 122.343 208.032L117.359 208.032C117.368 208.293 117.424 208.531 117.527 208.746C117.63 208.961 117.765 209.147 117.933 209.306C118.101 209.465 118.292 209.591 118.507 209.684C118.731 209.768 118.969 209.81 119.221 209.81C119.716 209.81 120.094 209.698 120.355 209.474C120.626 209.241 120.817 208.956 120.929 208.62L122.301 209.054ZM125.995 204.182L127.409 204.182L127.409 205.624L125.995 205.624L125.995 208.788C125.995 209.087 126.065 209.306 126.205 209.446C126.345 209.577 126.564 209.642 126.863 209.642C126.975 209.642 127.087 209.637 127.199 209.628C127.311 209.609 127.386 209.595 127.423 209.586L127.423 210.93C127.376 210.949 127.274 210.977 127.115 211.014C126.956 211.061 126.728 211.084 126.429 211.084C125.794 211.084 125.295 210.907 124.931 210.552C124.567 210.197 124.385 209.698 124.385 209.054L124.385 205.624L123.125 205.624L123.125 204.182L123.475 204.182C123.839 204.182 124.105 204.079 124.273 203.874C124.441 203.669 124.525 203.417 124.525 203.118L124.525 202.096L125.995 202.096L125.995 204.182Z" fill="#1068ED"/>
<ellipse cx="180.916" cy="206" rx="11.9161" ry="12" transform="rotate(-166.969 180.916 206)" fill="#1068F0"/>
<path d="M176.02 209.476C175.996 209.891 176.311 210.246 176.723 210.27L183.44 210.651C183.852 210.674 184.206 210.357 184.229 209.942C184.253 209.527 183.938 209.172 183.526 209.148L177.555 208.81L177.896 202.799C177.92 202.385 177.605 202.029 177.193 202.006C176.78 201.982 176.427 202.3 176.404 202.715L176.02 209.476ZM184.692 201.389L176.269 208.957L177.264 210.08L185.687 202.511L184.692 201.389Z" fill="white"/>
</g>
<g filter="url(#filter2_d)">
<rect x="220.841" y="178.574" width="171" height="55" rx="3.5" fill="#1068F0" stroke="#1068ED"/>
<path d="M248.516 203.949C248.488 203.799 248.432 203.636 248.348 203.459C248.274 203.272 248.157 203.104 247.998 202.955C247.849 202.805 247.658 202.679 247.424 202.577C247.191 202.474 246.906 202.423 246.57 202.423C246.318 202.423 246.085 202.465 245.87 202.549C245.665 202.623 245.488 202.726 245.338 202.857C245.189 202.987 245.072 203.141 244.988 203.319C244.904 203.487 244.862 203.664 244.862 203.851C244.862 204.168 244.956 204.439 245.142 204.663C245.338 204.887 245.632 205.041 246.024 205.125L247.452 205.419C248.33 205.596 248.997 205.941 249.454 206.455C249.912 206.968 250.14 207.575 250.14 208.275C250.14 208.657 250.061 209.031 249.902 209.395C249.753 209.759 249.529 210.081 249.23 210.361C248.932 210.641 248.563 210.865 248.124 211.033C247.695 211.201 247.196 211.285 246.626 211.285C245.992 211.285 245.441 211.196 244.974 211.019C244.517 210.832 244.13 210.594 243.812 210.305C243.504 210.006 243.266 209.675 243.098 209.311C242.93 208.947 242.828 208.587 242.79 208.233L244.358 207.785C244.386 208.046 244.452 208.298 244.554 208.541C244.657 208.774 244.802 208.984 244.988 209.171C245.184 209.348 245.418 209.493 245.688 209.605C245.959 209.717 246.272 209.773 246.626 209.773C247.224 209.773 247.672 209.642 247.97 209.381C248.278 209.119 248.432 208.793 248.432 208.401C248.432 208.074 248.316 207.794 248.082 207.561C247.858 207.318 247.532 207.15 247.102 207.057L245.702 206.763C244.946 206.604 244.335 206.287 243.868 205.811C243.411 205.335 243.182 204.723 243.182 203.977C243.182 203.557 243.271 203.165 243.448 202.801C243.626 202.427 243.868 202.105 244.176 201.835C244.484 201.555 244.839 201.335 245.24 201.177C245.651 201.018 246.09 200.939 246.556 200.939C247.144 200.939 247.644 201.018 248.054 201.177C248.465 201.335 248.806 201.541 249.076 201.793C249.356 202.035 249.571 202.306 249.72 202.605C249.87 202.903 249.972 203.193 250.028 203.473L248.516 203.949ZM254.617 205.545C254.365 205.545 254.127 205.591 253.903 205.685C253.679 205.778 253.479 205.913 253.301 206.091C253.133 206.268 252.998 206.487 252.895 206.749C252.793 207.01 252.741 207.313 252.741 207.659C252.741 208.004 252.793 208.312 252.895 208.583C252.998 208.844 253.133 209.068 253.301 209.255C253.479 209.432 253.684 209.567 253.917 209.661C254.151 209.754 254.393 209.801 254.645 209.801C254.907 209.801 255.135 209.759 255.331 209.675C255.537 209.591 255.705 209.488 255.835 209.367C255.975 209.236 256.087 209.101 256.171 208.961C256.255 208.811 256.316 208.671 256.353 208.541L257.781 209.059C257.697 209.329 257.571 209.595 257.403 209.857C257.235 210.118 257.021 210.356 256.759 210.571C256.507 210.785 256.204 210.958 255.849 211.089C255.495 211.219 255.093 211.285 254.645 211.285C254.141 211.285 253.675 211.196 253.245 211.019C252.816 210.832 252.443 210.575 252.125 210.249C251.817 209.922 251.57 209.539 251.383 209.101C251.206 208.662 251.117 208.181 251.117 207.659C251.117 207.136 251.206 206.655 251.383 206.217C251.561 205.769 251.808 205.386 252.125 205.069C252.443 204.742 252.811 204.49 253.231 204.313C253.651 204.135 254.109 204.047 254.603 204.047C255.061 204.047 255.467 204.112 255.821 204.243C256.176 204.373 256.484 204.546 256.745 204.761C257.007 204.966 257.217 205.204 257.375 205.475C257.534 205.745 257.651 206.016 257.725 206.287L256.269 206.819C256.232 206.669 256.171 206.52 256.087 206.371C256.013 206.212 255.905 206.072 255.765 205.951C255.635 205.829 255.476 205.731 255.289 205.657C255.103 205.582 254.879 205.545 254.617 205.545ZM258.763 209.227C258.763 208.919 258.814 208.648 258.917 208.415C259.029 208.181 259.173 207.981 259.351 207.813C259.537 207.635 259.757 207.495 260.009 207.393C260.261 207.29 260.531 207.215 260.821 207.169L262.571 206.903C262.767 206.875 262.897 206.819 262.963 206.735C263.037 206.641 263.075 206.534 263.075 206.413C263.075 206.123 262.972 205.881 262.767 205.685C262.561 205.479 262.235 205.377 261.787 205.377C261.357 205.377 261.026 205.498 260.793 205.741C260.559 205.974 260.424 206.263 260.387 206.609L258.903 206.273C258.931 205.983 259.019 205.703 259.169 205.433C259.318 205.162 259.514 204.924 259.757 204.719C259.999 204.513 260.289 204.35 260.625 204.229C260.97 204.107 261.353 204.047 261.773 204.047C262.295 204.047 262.739 204.117 263.103 204.257C263.476 204.397 263.775 204.583 263.999 204.817C264.232 205.05 264.4 205.321 264.503 205.629C264.615 205.937 264.671 206.259 264.671 206.595L264.671 209.983C264.671 210.291 264.68 210.543 264.699 210.739C264.727 210.925 264.745 211.037 264.755 211.075L263.243 211.075C263.233 211.056 263.219 210.977 263.201 210.837C263.182 210.687 263.173 210.477 263.173 210.207C263.014 210.468 262.762 210.715 262.417 210.949C262.071 211.173 261.623 211.285 261.073 211.285C260.718 211.285 260.396 211.229 260.107 211.117C259.827 211.005 259.584 210.855 259.379 210.669C259.183 210.473 259.029 210.253 258.917 210.011C258.814 209.759 258.763 209.497 258.763 209.227ZM261.381 210.011C261.605 210.011 261.819 209.983 262.025 209.927C262.23 209.861 262.407 209.763 262.557 209.633C262.715 209.493 262.841 209.311 262.935 209.087C263.028 208.863 263.075 208.583 263.075 208.247L263.075 207.939L261.297 208.205C261.045 208.251 260.83 208.349 260.653 208.499C260.475 208.639 260.387 208.849 260.387 209.129C260.387 209.362 260.471 209.567 260.639 209.745C260.807 209.922 261.054 210.011 261.381 210.011ZM268.258 211.075L266.634 211.075L266.634 204.257L268.216 204.257L268.216 205.167C268.44 204.775 268.734 204.495 269.098 204.327C269.471 204.149 269.849 204.061 270.232 204.061C270.652 204.061 271.016 204.131 271.324 204.271C271.632 204.411 271.884 204.607 272.08 204.859C272.285 205.101 272.439 205.386 272.542 205.713C272.644 206.039 272.696 206.389 272.696 206.763L272.696 211.075L271.072 211.075L271.072 207.043C271.072 206.623 270.964 206.268 270.75 205.979C270.544 205.68 270.185 205.531 269.672 205.531C269.205 205.531 268.85 205.689 268.608 206.007C268.374 206.315 268.258 206.693 268.258 207.141L268.258 211.075ZM283.157 209.899C282.765 210.319 282.35 210.65 281.911 210.893C281.472 211.135 280.982 211.257 280.441 211.257C279.965 211.257 279.54 211.182 279.167 211.033C278.803 210.883 278.495 210.687 278.243 210.445C277.991 210.202 277.8 209.927 277.669 209.619C277.548 209.301 277.487 208.979 277.487 208.653C277.487 208.335 277.529 208.051 277.613 207.799C277.697 207.547 277.814 207.313 277.963 207.099C278.112 206.875 278.29 206.669 278.495 206.483C278.71 206.296 278.948 206.105 279.209 205.909L279.307 205.839L279.139 205.657C279.018 205.535 278.892 205.395 278.761 205.237C278.63 205.078 278.509 204.91 278.397 204.733C278.285 204.546 278.192 204.35 278.117 204.145C278.042 203.93 278.005 203.706 278.005 203.473C278.005 203.062 278.08 202.703 278.229 202.395C278.388 202.077 278.593 201.811 278.845 201.597C279.097 201.382 279.382 201.219 279.699 201.107C280.016 200.995 280.338 200.939 280.665 200.939C281.057 200.939 281.416 200.999 281.743 201.121C282.079 201.233 282.368 201.396 282.611 201.611C282.854 201.825 283.04 202.087 283.171 202.395C283.311 202.693 283.381 203.029 283.381 203.403C283.381 203.645 283.339 203.874 283.255 204.089C283.18 204.303 283.078 204.504 282.947 204.691C282.816 204.877 282.667 205.05 282.499 205.209C282.331 205.367 282.158 205.512 281.981 205.643L281.547 205.965L283.199 207.687L285.565 205.139L285.565 207.239L284.207 208.737L286.447 211.075L284.277 211.075L283.157 209.899ZM280.469 209.787C280.796 209.787 281.09 209.698 281.351 209.521C281.612 209.343 281.869 209.119 282.121 208.849L282.135 208.835L280.301 206.889L279.965 207.141C279.722 207.318 279.526 207.514 279.377 207.729C279.228 207.943 279.153 208.214 279.153 208.541C279.153 208.699 279.181 208.853 279.237 209.003C279.302 209.143 279.391 209.273 279.503 209.395C279.615 209.516 279.75 209.614 279.909 209.689C280.077 209.754 280.264 209.787 280.469 209.787ZM279.601 203.375C279.601 203.617 279.666 203.841 279.797 204.047C279.928 204.243 280.082 204.434 280.259 204.621L280.539 204.929L281.113 204.509C281.374 204.313 281.552 204.121 281.645 203.935C281.738 203.748 281.785 203.561 281.785 203.375C281.785 203.076 281.682 202.824 281.477 202.619C281.272 202.413 281.006 202.311 280.679 202.311C280.548 202.311 280.418 202.334 280.287 202.381C280.166 202.418 280.054 202.483 279.951 202.577C279.848 202.661 279.764 202.773 279.699 202.913C279.634 203.043 279.601 203.197 279.601 203.375ZM293.979 205.713C294.511 205.713 294.926 205.577 295.225 205.307C295.533 205.036 295.687 204.663 295.687 204.187C295.687 203.711 295.533 203.333 295.225 203.053C294.926 202.773 294.511 202.633 293.979 202.633L292.229 202.633L292.229 205.713L293.979 205.713ZM292.229 207.197L292.229 211.075L290.549 211.075L290.549 201.149L294.231 201.149C294.707 201.149 295.136 201.228 295.519 201.387C295.911 201.536 296.247 201.746 296.527 202.017C296.807 202.278 297.022 202.595 297.171 202.969C297.32 203.342 297.395 203.743 297.395 204.173C297.395 204.611 297.32 205.017 297.171 205.391C297.022 205.755 296.807 206.072 296.527 206.343C296.247 206.613 295.911 206.823 295.519 206.973C295.136 207.122 294.707 207.197 294.231 207.197L292.229 207.197ZM298.083 209.227C298.083 208.919 298.134 208.648 298.237 208.415C298.349 208.181 298.494 207.981 298.671 207.813C298.858 207.635 299.077 207.495 299.329 207.393C299.581 207.29 299.852 207.215 300.141 207.169L301.891 206.903C302.087 206.875 302.218 206.819 302.283 206.735C302.358 206.641 302.395 206.534 302.395 206.413C302.395 206.123 302.292 205.881 302.087 205.685C301.882 205.479 301.555 205.377 301.107 205.377C300.678 205.377 300.346 205.498 300.113 205.741C299.88 205.974 299.744 206.263 299.707 206.609L298.223 206.273C298.251 205.983 298.34 205.703 298.489 205.433C298.638 205.162 298.834 204.924 299.077 204.719C299.32 204.513 299.609 204.35 299.945 204.229C300.29 204.107 300.673 204.047 301.093 204.047C301.616 204.047 302.059 204.117 302.423 204.257C302.796 204.397 303.095 204.583 303.319 204.817C303.552 205.05 303.72 205.321 303.823 205.629C303.935 205.937 303.991 206.259 303.991 206.595L303.991 209.983C303.991 210.291 304 210.543 304.019 210.739C304.047 210.925 304.066 211.037 304.075 211.075L302.563 211.075C302.554 211.056 302.54 210.977 302.521 210.837C302.502 210.687 302.493 210.477 302.493 210.207C302.334 210.468 302.082 210.715 301.737 210.949C301.392 211.173 300.944 211.285 300.393 211.285C300.038 211.285 299.716 211.229 299.427 211.117C299.147 211.005 298.904 210.855 298.699 210.669C298.503 210.473 298.349 210.253 298.237 210.011C298.134 209.759 298.083 209.497 298.083 209.227ZM300.701 210.011C300.925 210.011 301.14 209.983 301.345 209.927C301.55 209.861 301.728 209.763 301.877 209.633C302.036 209.493 302.162 209.311 302.255 209.087C302.348 208.863 302.395 208.583 302.395 208.247L302.395 207.939L300.617 208.205C300.365 208.251 300.15 208.349 299.973 208.499C299.796 208.639 299.707 208.849 299.707 209.129C299.707 209.362 299.791 209.567 299.959 209.745C300.127 209.922 300.374 210.011 300.701 210.011ZM306.126 213.833L307.764 210.263L304.852 204.257L306.686 204.257L308.646 208.569L310.48 204.257L312.202 204.257L307.862 213.833L306.126 213.833Z" fill="white"/>
<ellipse cx="367.257" cy="206.074" rx="11.9161" ry="12" fill="white"/>
<path d="M371.244 201.584C371.173 201.174 370.786 200.899 370.379 200.969L363.75 202.112C363.343 202.182 363.07 202.571 363.141 202.981C363.211 203.39 363.598 203.666 364.005 203.595L369.898 202.579L370.921 208.512C370.992 208.921 371.379 209.196 371.786 209.126C372.193 209.056 372.465 208.667 372.395 208.258L371.244 201.584ZM364.619 211.418L371.119 202.145L369.896 201.276L363.396 210.549L364.619 211.418Z" fill="#1068ED"/>
</g>
<defs>
<filter id="filter0_d" x="0" y="148" width="430.84" height="116.936" filterUnits="userSpaceOnUse" color-interpolation-filters="sRGB">
<feFlood flood-opacity="0" result="BackgroundImageFix"/>
<feColorMatrix in="SourceAlpha" type="matrix" values="0 0 0 0 0 0 0 0 0 0 0 0 0 0 0 0 0 0 127 0"/>
<feOffset/>
<feGaussianBlur stdDeviation="8.5"/>
<feColorMatrix type="matrix" values="0 0 0 0 0 0 0 0 0 0 0 0 0 0 0 0 0 0 0.25 0"/>
<feBlend mode="normal" in2="BackgroundImageFix" result="effect1_dropShadow"/>
<feBlend mode="normal" in="SourceGraphic" in2="effect1_dropShadow" result="shape"/>
</filter>
<filter id="filter1_d" x="26" y="170" width="193" height="72" filterUnits="userSpaceOnUse" color-interpolation-filters="sRGB">
<feFlood flood-opacity="0" result="BackgroundImageFix"/>
<feColorMatrix in="SourceAlpha" type="matrix" values="0 0 0 0 0 0 0 0 0 0 0 0 0 0 0 0 0 0 127 0"/>
<feOffset/>
<feGaussianBlur stdDeviation="4"/>
<feColorMatrix type="matrix" values="0 0 0 0 0 0 0 0 0 0 0 0 0 0 0 0 0 0 0.12 0"/>
<feBlend mode="normal" in2="BackgroundImageFix" result="effect1_dropShadow"/>
<feBlend mode="normal" in="SourceGraphic" in2="effect1_dropShadow" result="shape"/>
</filter>
<filter id="filter2_d" x="202.341" y="160.074" width="208" height="92" filterUnits="userSpaceOnUse" color-interpolation-filters="sRGB">
<feFlood flood-opacity="0" result="BackgroundImageFix"/>
<feColorMatrix in="SourceAlpha" type="matrix" values="0 0 0 0 0 0 0 0 0 0 0 0 0 0 0 0 0 0 127 0"/>
<feOffset/>
<feGaussianBlur stdDeviation="9"/>
<feColorMatrix type="matrix" values="0 0 0 0 0 0 0 0 0 0 0 0 0 0 0 0 0 0 0.12 0"/>
<feBlend mode="normal" in2="BackgroundImageFix" result="effect1_dropShadow"/>
<feBlend mode="normal" in="SourceGraphic" in2="effect1_dropShadow" result="shape"/>
</filter>
</defs>
</svg>
