<svg width="56" height="56" viewBox="0 0 56 56" fill="none" xmlns="http://www.w3.org/2000/svg">
<path d="M36.75 36.75C36.1463 36.75 35.6562 37.2401 35.6562 37.8438C35.6562 38.4474 36.1463 38.9375 36.75 38.9375C37.3537 38.9375 37.8438 38.4474 37.8438 37.8438C37.8438 37.2401 37.3537 36.75 36.75 36.75Z" fill="#9CACC6"/>
<path d="M13.125 18.1562C13.7291 18.1562 14.2188 17.6666 14.2188 17.0625V12.6875C14.2188 12.0834 13.7291 11.5938 13.125 11.5938C12.5209 11.5938 12.0312 12.0834 12.0312 12.6875V17.0625C12.0312 17.6666 12.5209 18.1562 13.125 18.1562Z" fill="#9CACC6"/>
<path d="M51.625 25.8125V17.0625C51.625 14.047 49.1718 11.5938 46.1562 11.5938H40.0312V3.28125C40.0312 1.47186 38.5594 0 36.75 0H16.4062C14.5969 0 13.125 1.47186 13.125 3.28125V7.21875H9.84375C8.03436 7.21875 6.5625 8.69061 6.5625 10.5V11.5938H5.46875C2.45325 11.5938 0 14.047 0 17.0625V50.5312C0 53.5468 2.45325 56 5.46875 56H38.9375C41.5783 56 43.788 54.1184 44.296 51.625H46.1562C49.1718 51.625 51.625 49.1718 51.625 46.1562V43.3125H52.7188C54.5281 43.3125 56 41.8406 56 40.0312V30.1875C56 27.7753 54.0372 25.8125 51.625 25.8125ZM53.8125 30.1875C53.8125 31.3958 52.8333 32.375 51.625 32.375V28C52.8311 28 53.8125 28.9814 53.8125 30.1875ZM46.1562 13.7812C47.9656 13.7812 49.4375 15.2531 49.4375 17.0625V32.375H44.4062V25.8125C44.4062 23.1717 42.5247 20.962 40.0312 20.454V13.7812H46.1562ZM15.3125 3.28125C15.3125 2.67798 15.803 2.1875 16.4062 2.1875H36.75C37.3533 2.1875 37.8438 2.67798 37.8438 3.28125V20.3438H32.8125V10.5C32.8125 8.69061 31.3406 7.21875 29.5312 7.21875H15.3125V3.28125ZM26.25 20.3438V9.40625H29.5312C30.1345 9.40625 30.625 9.89673 30.625 10.5V20.3438H26.25ZM19.6875 20.3438V9.40625H24.0625V20.3438H19.6875ZM8.75 10.5C8.75 9.89673 9.24048 9.40625 9.84375 9.40625H17.5V20.3438H8.75V10.5ZM5.46875 13.7812H6.5625V20.3438H5.70288C3.8952 20.3438 2.1875 19.0347 2.1875 17.0625C2.1875 15.2531 3.65936 13.7812 5.46875 13.7812ZM38.9375 53.8125H5.46875C3.65936 53.8125 2.1875 52.3406 2.1875 50.5312V21.37C3.16547 22.0984 4.3938 22.5312 5.70288 22.5312H38.9375C40.7469 22.5312 42.2188 24.0031 42.2188 25.8125V32.375H34.5625C32.7531 32.375 31.2812 33.8469 31.2812 35.6562V40.0312C31.2812 41.8406 32.7531 43.3125 34.5625 43.3125H42.2188V50.5312C42.2188 52.3406 40.7469 53.8125 38.9375 53.8125ZM49.4375 46.1562C49.4375 47.9656 47.9656 49.4375 46.1562 49.4375H44.4062V43.3125H49.4375V46.1562ZM52.7188 41.125H34.5625C33.9592 41.125 33.4688 40.6345 33.4688 40.0312V35.6562C33.4688 35.053 33.9592 34.5625 34.5625 34.5625H51.625C52.4056 34.5625 53.1545 34.3583 53.8125 33.9767V40.0312C53.8125 40.6345 53.322 41.125 52.7188 41.125Z" fill="#9CACC6"/>
<path d="M46.1562 36.75H41.125C40.5209 36.75 40.0312 37.2396 40.0312 37.8438C40.0312 38.4479 40.5209 38.9375 41.125 38.9375H46.1562C46.7604 38.9375 47.25 38.4479 47.25 37.8438C47.25 37.2396 46.7604 36.75 46.1562 36.75Z" fill="#9CACC6"/>
<path d="M24.4049 36.5263V37.7274H26V38.5477H24.4049V42.2537H23.2049L20.2195 38.5477H17.0439V42.2537H15.5951V38.5477H14V37.7274H15.5951V36.5263H14V35.706H15.5951V32H16.7951L19.7659 35.706H22.9415V32H24.4049V35.706H26V36.5263H24.4049ZM17.0439 35.706H17.9366L17.0439 34.5927V35.706ZM19.561 37.7274L18.5951 36.5263H17.0439V37.7274H19.561ZM22.9415 36.5263H20.4244L21.3902 37.7274H22.9415V36.5263ZM22.9415 38.5477H22.0488L22.9415 39.661V38.5477Z" fill="#9CACC6"/>
</svg>
