<svg width="111" height="111" viewBox="0 0 111 111" fill="none" xmlns="http://www.w3.org/2000/svg">
<path d="M72.8438 72.8438C71.6471 72.8438 70.6758 73.8151 70.6758 75.0117C70.6758 76.2083 71.6471 77.1797 72.8438 77.1797C74.0404 77.1797 75.0117 76.2083 75.0117 75.0117C75.0117 73.8151 74.0404 72.8438 72.8438 72.8438Z" fill="#465166"/>
<path d="M43.3594 70.6758C42.1637 70.6758 41.1915 69.7036 41.1915 68.5078C41.1915 67.312 42.1637 66.3398 43.3594 66.3398C44.1275 66.3398 44.938 66.7319 45.7044 67.4729C46.5648 68.3054 47.9376 68.2834 48.77 67.4221C49.6025 66.5617 49.5796 65.1898 48.7192 64.3573C47.6191 63.292 46.5182 62.6899 45.5274 62.3613V59.8359C45.5274 58.6385 44.5569 57.668 43.3594 57.668C42.162 57.668 41.1915 58.6385 41.1915 59.8359V62.3765C38.6678 63.2717 36.8555 65.6818 36.8555 68.5078C36.8555 72.0943 39.773 75.0117 43.3594 75.0117C44.5543 75.0117 45.5274 75.9839 45.5274 77.1797C45.5274 78.3755 44.5543 79.3477 43.3594 79.3477C42.433 79.3477 41.4328 78.765 40.5436 77.7073C39.7738 76.791 38.4061 76.6724 37.4898 77.4431C36.5727 78.2137 36.455 79.5814 37.2248 80.4977C38.3841 81.8764 39.7467 82.8367 41.1915 83.3211V85.8516C41.1915 87.049 42.162 88.0195 43.3594 88.0195C44.5569 88.0195 45.5274 87.049 45.5274 85.8516V83.311C48.0502 82.4158 49.8633 80.0057 49.8633 77.1797C49.8633 73.5932 46.9459 70.6758 43.3594 70.6758Z" fill="#465166"/>
<path d="M26.0156 35.9883C27.2131 35.9883 28.1836 35.0178 28.1836 33.8203V25.1484C28.1836 23.951 27.2131 22.9805 26.0156 22.9805C24.8182 22.9805 23.8477 23.951 23.8477 25.1484V33.8203C23.8477 35.0178 24.8182 35.9883 26.0156 35.9883Z" fill="#465166"/>
<path d="M102.328 51.1641V33.8203C102.328 27.8432 97.4654 22.9805 91.4883 22.9805H79.3477V6.50391C79.3477 2.91744 76.4302 0 72.8438 0H32.5195C28.9331 0 26.0156 2.91744 26.0156 6.50391V14.3086H19.5117C15.9253 14.3086 13.0078 17.226 13.0078 20.8125V22.9805H10.8398C4.86269 22.9805 0 27.8432 0 33.8203V100.16C0 106.137 4.86269 111 10.8398 111H77.1797C82.4141 111 86.7941 107.27 87.801 102.328H91.4883C97.4654 102.328 102.328 97.4654 102.328 91.4883V85.8516H104.496C108.083 85.8516 111 82.9341 111 79.3477V59.8359C111 55.0546 107.11 51.1641 102.328 51.1641ZM106.664 59.8359C106.664 62.2309 104.723 64.1719 102.328 64.1719V55.5C104.719 55.5 106.664 57.4452 106.664 59.8359ZM91.4883 27.3164C95.0747 27.3164 97.9922 30.2338 97.9922 33.8203V64.1719H88.0195V51.1641C88.0195 45.9296 84.2899 41.5496 79.3477 40.5427V27.3164H91.4883ZM30.3516 6.50391C30.3516 5.30814 31.3238 4.33594 32.5195 4.33594H72.8438C74.0395 4.33594 75.0117 5.30814 75.0117 6.50391V40.3242H65.0391V20.8125C65.0391 17.226 62.1216 14.3086 58.5352 14.3086H30.3516V6.50391ZM52.0312 40.3242V18.6445H58.5352C59.7309 18.6445 60.7031 19.6167 60.7031 20.8125V40.3242H52.0312ZM39.0234 40.3242V18.6445H47.6953V40.3242H39.0234ZM17.3438 20.8125C17.3438 19.6167 18.3159 18.6445 19.5117 18.6445H34.6875V40.3242H17.3438V20.8125ZM10.8398 27.3164H13.0078V40.3242H11.3039C7.72085 40.3242 4.33594 37.7294 4.33594 33.8203C4.33594 30.2338 7.25338 27.3164 10.8398 27.3164ZM77.1797 106.664H10.8398C7.25338 106.664 4.33594 103.747 4.33594 100.16V42.3584C6.27441 43.8023 8.70914 44.6602 11.3039 44.6602H77.1797C80.7662 44.6602 83.6836 47.5776 83.6836 51.1641V64.1719H68.5078C64.9213 64.1719 62.0039 67.0893 62.0039 70.6758V79.3477C62.0039 82.9341 64.9213 85.8516 68.5078 85.8516H83.6836V100.16C83.6836 103.747 80.7662 106.664 77.1797 106.664ZM97.9922 91.4883C97.9922 95.0747 95.0747 97.9922 91.4883 97.9922H88.0195V85.8516H97.9922V91.4883ZM104.496 81.5156H68.5078C67.312 81.5156 66.3398 80.5434 66.3398 79.3477V70.6758C66.3398 69.48 67.312 68.5078 68.5078 68.5078H102.328C103.875 68.5078 105.36 68.103 106.664 67.3468V79.3477C106.664 80.5434 105.692 81.5156 104.496 81.5156Z" fill="#465166"/>
<path d="M91.4883 72.8438H81.5156C80.3182 72.8438 79.3477 73.8143 79.3477 75.0117C79.3477 76.2092 80.3182 77.1797 81.5156 77.1797H91.4883C92.6857 77.1797 93.6562 76.2092 93.6562 75.0117C93.6562 73.8143 92.6857 72.8438 91.4883 72.8438Z" fill="#465166"/>
</svg>
