<svg width="111" height="111" viewBox="0 0 111 111" fill="none" xmlns="http://www.w3.org/2000/svg">
<path d="M102.328 51.1641V33.8203C102.328 27.8432 97.4654 22.9805 91.4883 22.9805H79.3477V6.50391C79.3477 2.91744 76.4302 0 72.8438 0H32.5195C28.9331 0 26.0156 2.91744 26.0156 6.50391V14.3086H19.5117C15.9253 14.3086 13.0078 17.226 13.0078 20.8125V22.9805H10.8398C4.86269 22.9805 0 27.8432 0 33.8203V100.16C0 106.137 4.86269 111 10.8398 111H77.1797C82.4141 111 86.7941 107.27 87.801 102.328H91.4883C97.4654 102.328 102.328 97.4654 102.328 91.4883V85.8516H104.496C108.083 85.8516 111 82.9341 111 79.3477V59.8359C111 55.0546 107.11 51.1641 102.328 51.1641ZM106.664 59.8359C106.664 62.2309 104.723 64.1719 102.328 64.1719V55.5C104.719 55.5 106.664 57.4452 106.664 59.8359ZM91.4883 27.3164C95.0747 27.3164 97.9922 30.2338 97.9922 33.8203V64.1719H88.0195V51.1641C88.0195 45.9296 84.2899 41.5496 79.3477 40.5427V27.3164H91.4883ZM30.3516 6.50391C30.3516 5.30814 31.3238 4.33594 32.5195 4.33594H72.8438C74.0395 4.33594 75.0117 5.30814 75.0117 6.50391V40.3242H65.0391V20.8125C65.0391 17.226 62.1216 14.3086 58.5352 14.3086H30.3516V6.50391ZM52.0312 40.3242V18.6445H58.5352C59.7309 18.6445 60.7031 19.6167 60.7031 20.8125V40.3242H52.0312ZM39.0234 40.3242V18.6445H47.6953V40.3242H39.0234ZM17.3438 20.8125C17.3438 19.6167 18.3159 18.6445 19.5117 18.6445H34.6875V40.3242H17.3438V20.8125ZM10.8398 27.3164H13.0078V40.3242H11.3039C7.72085 40.3242 4.33594 37.7294 4.33594 33.8203C4.33594 30.2338 7.25338 27.3164 10.8398 27.3164ZM77.1797 106.664H10.8398C7.25338 106.664 4.33594 103.747 4.33594 100.16V42.3584C6.27441 43.8023 8.70914 44.6602 11.3039 44.6602H77.1797C80.7662 44.6602 83.6836 47.5776 83.6836 51.1641V64.1719H68.5078C64.9213 64.1719 62.0039 67.0893 62.0039 70.6758V79.3477C62.0039 82.9341 64.9213 85.8516 68.5078 85.8516H83.6836V100.16C83.6836 103.747 80.7662 106.664 77.1797 106.664ZM97.9922 91.4883C97.9922 95.0747 95.0747 97.9922 91.4883 97.9922H88.0195V85.8516H97.9922V91.4883ZM104.496 81.5156H68.5078C67.312 81.5156 66.3398 80.5434 66.3398 79.3477V70.6758C66.3398 69.48 67.312 68.5078 68.5078 68.5078H102.328C103.875 68.5078 105.36 68.103 106.664 67.3468V79.3477C106.664 80.5434 105.692 81.5156 104.496 81.5156Z" fill="#2D6CEA"/>
</svg>
